<svg width="24" height="24" viewBox="0 0 24 24" fill="none" xmlns="http://www.w3.org/2000/svg">
<path d="M10.3187 5L11.2569 6.3226C10.0591 7.16565 9.0139 8.20679 8.16616 9.40125C7.53461 10.3053 7.18713 11.3773 7.16816 12.4799V12.8172C7.40875 12.7854 7.62898 12.7574 7.82883 12.7332C8.01633 12.7097 8.20506 12.6974 8.39402 12.6963C8.78571 12.6849 9.17561 12.7537 9.53968 12.8986C9.90375 13.0436 10.2343 13.2615 10.5109 13.539C10.7868 13.8118 11.004 14.1383 11.1489 14.4982C11.2938 14.8581 11.3635 15.2439 11.3536 15.6318C11.3757 16.0793 11.3084 16.5267 11.1557 16.9478C11.0029 17.369 10.7677 17.7555 10.4638 18.0848C10.1557 18.3923 9.78703 18.6324 9.3812 18.79C8.97538 18.9475 8.54125 19.019 8.10633 19C7.58385 19.0112 7.0658 18.9019 6.59231 18.6807C6.11883 18.4596 5.7026 18.1324 5.37586 17.7245C4.63604 16.7989 4.25581 15.6369 4.30528 14.453C4.30248 12.6341 4.82928 10.8538 5.82137 9.32933C6.99462 7.58203 8.52804 6.10589 10.3187 5ZM18.7112 5L19.6481 6.3226C18.4503 7.16565 17.4051 8.20679 16.5573 9.40125C15.9258 10.3053 15.5783 11.3773 15.5593 12.4799V12.8172C15.7834 12.7854 15.9959 12.7574 16.1971 12.7332C16.3926 12.7091 16.5894 12.6968 16.7864 12.6963C17.1756 12.681 17.5637 12.7469 17.9259 12.8898C18.2882 13.0327 18.6168 13.2495 18.8906 13.5263C19.1587 13.8057 19.3682 14.1359 19.5065 14.4975C19.6449 14.8592 19.7095 15.2448 19.6964 15.6318C19.7419 16.5315 19.4309 17.4129 18.8308 18.0848C18.5284 18.3933 18.1642 18.6343 17.7621 18.792C17.3599 18.9497 16.929 19.0206 16.4975 19C15.9718 19.0093 15.4508 18.8994 14.9737 18.6785C14.4966 18.4576 14.0758 18.1314 13.7429 17.7245C12.989 16.8052 12.5993 15.6409 12.6481 14.453C12.6541 12.6526 13.185 10.8931 14.1756 9.3898C15.365 7.62645 16.9099 6.1312 18.7112 5Z" fill="black"/>
</svg>
