<svg width="24" height="24" viewBox="0 0 24 24" fill="none" xmlns="http://www.w3.org/2000/svg">
<path d="M9.92 15.8333L6.24 12L9.92 8.16667L8.8 7L4 12L8.8 17L9.92 15.8333ZM14.08 15.8333L17.76 12L14.08 8.16667L15.2 7L20 12L15.2 17L14.08 15.8333Z" fill="black"/>
<path fill-rule="evenodd" clip-rule="evenodd" d="M1 4.125C1 3.50368 1.49249 3 2.1 3H21.9C22.5075 3 23 3.50368 23 4.125V19.875C23 20.4963 22.5075 21 21.9 21H2.1C1.49249 21 1 20.4963 1 19.875V4.125ZM3.2 5.25V18.75H20.8V5.25H3.2Z" fill="black"/>
<path fill-rule="evenodd" clip-rule="evenodd" d="M10.0281 17.0799L12.8541 6.41958L14.0034 6.78187L11.1773 17.4421L10.0281 17.0799Z" fill="black"/>
</svg>
