<svg width="24" height="24" viewBox="0 0 24 24" fill="none" xmlns="http://www.w3.org/2000/svg">
<path d="M1 19.0071V5.18892H2.6733V11.3423H10.0412V5.18892H11.7145V19.0071H10.0412V12.8267H2.6733V19.0071H1Z" fill="black"/>
<path d="M14.8216 19.0071V17.7926L19.3826 12.7997C19.9179 12.215 20.3587 11.7067 20.7051 11.2749C21.0514 10.8385 21.3078 10.4292 21.4743 10.0469C21.6452 9.66004 21.7306 9.25521 21.7306 8.83239C21.7306 8.34659 21.6137 7.92602 21.3798 7.57067C21.1504 7.21532 20.8355 6.94093 20.4352 6.74751C20.0349 6.5541 19.5851 6.45739 19.0858 6.45739C18.555 6.45739 18.0917 6.56759 17.6958 6.788C17.3045 7.00391 17.0009 7.30753 16.785 7.69886C16.5736 8.0902 16.4679 8.54901 16.4679 9.07528H14.8755C14.8755 8.26563 15.0622 7.55492 15.4355 6.94318C15.8089 6.33144 16.3172 5.85464 16.9604 5.51278C17.6081 5.17093 18.3346 5 19.1397 5C19.9494 5 20.6668 5.17093 21.2921 5.51278C21.9173 5.85464 22.4076 6.3157 22.763 6.89595C23.1183 7.47621 23.296 8.12169 23.296 8.83239C23.296 9.34067 23.2038 9.83771 23.0194 10.3235C22.8394 10.8048 22.5246 11.3423 22.0748 11.9361C21.6294 12.5253 21.0109 13.245 20.2193 14.0952L17.1156 17.4148V17.5227H23.5389V19.0071H14.8216Z" fill="black"/>
</svg>
