<svg width="24" height="24" viewBox="0 0 24 24" fill="none" xmlns="http://www.w3.org/2000/svg">
<path d="M0 19.0071V5.18892H1.6733V11.3423H9.04119V5.18892H10.7145V19.0071H9.04119V12.8267H1.6733V19.0071H0Z" fill="black"/>
<path d="M18.4906 19.196C17.6 19.196 16.806 19.0431 16.1088 18.7372C15.4161 18.4313 14.8651 18.0063 14.4558 17.462C14.051 16.9132 13.8306 16.2768 13.7946 15.5526H15.4949C15.5308 15.9979 15.6838 16.3825 15.9537 16.7063C16.2235 17.0257 16.5766 17.2731 17.013 17.4485C17.4493 17.6239 17.9328 17.7116 18.4636 17.7116C19.0574 17.7116 19.5836 17.6082 20.0424 17.4013C20.5012 17.1944 20.8611 16.9065 21.122 16.5376C21.3829 16.1688 21.5133 15.7415 21.5133 15.2557C21.5133 14.7474 21.3874 14.2998 21.1355 13.913C20.8836 13.5217 20.5147 13.2158 20.0289 12.9954C19.5431 12.775 18.9494 12.6648 18.2477 12.6648H17.1412V11.1804H18.2477C18.7965 11.1804 19.2778 11.0814 19.6916 10.8835C20.1099 10.6856 20.436 10.4067 20.6699 10.0469C20.9083 9.68703 21.0275 9.2642 21.0275 8.77841C21.0275 8.31061 20.9241 7.90353 20.7172 7.55717C20.5102 7.21082 20.2179 6.94093 19.84 6.74751C19.4667 6.5541 19.0259 6.45739 18.5176 6.45739C18.0408 6.45739 17.591 6.5451 17.1681 6.72053C16.7498 6.89145 16.408 7.1411 16.1426 7.46946C15.8772 7.79332 15.7333 8.18466 15.7108 8.64347H14.0914C14.1184 7.91927 14.3366 7.28504 14.7459 6.74077C15.1552 6.192 15.6905 5.76468 16.3517 5.45881C17.0175 5.15294 17.7484 5 18.5446 5C19.3992 5 20.1324 5.17318 20.7441 5.51953C21.3559 5.86139 21.8259 6.31345 22.1543 6.87571C22.4827 7.43797 22.6468 8.04522 22.6468 8.69744C22.6468 9.47562 22.4422 10.1391 22.0328 10.6879C21.628 11.2366 21.077 11.6167 20.3798 11.8281V11.9361C21.2524 12.08 21.9339 12.4511 22.4242 13.0494C22.9145 13.6431 23.1596 14.3786 23.1596 15.2557C23.1596 16.0069 22.955 16.6816 22.5456 17.2798C22.1408 17.8736 21.5875 18.3414 20.8858 18.6832C20.1841 19.0251 19.3857 19.196 18.4906 19.196Z" fill="black"/>
</svg>
