<svg width="24" height="24" viewBox="0 0 24 24" fill="none" xmlns="http://www.w3.org/2000/svg">
<path d="M1 18.8182V5H2.6733V11.1534H10.0412V5H11.7145V18.8182H10.0412V12.6378H2.6733V18.8182H1Z" fill="black"/>
<path d="M19.1397 19.0071C18.3481 19.0071 17.6351 18.8497 17.0009 18.5348C16.3667 18.2199 15.8584 17.7881 15.476 17.2393C15.0937 16.6906 14.8845 16.0653 14.8485 15.3636H16.4679C16.5308 15.9889 16.8142 16.5062 17.318 16.9155C17.8263 17.3203 18.4335 17.5227 19.1397 17.5227C19.7065 17.5227 20.2103 17.39 20.6511 17.1246C21.0964 16.8593 21.445 16.4949 21.6969 16.0316C21.9533 15.5638 22.0815 15.0353 22.0815 14.446C22.0815 13.8433 21.9488 13.3058 21.6834 12.8335C21.4225 12.3567 21.0627 11.9811 20.6039 11.7067C20.1451 11.4323 19.621 11.2929 19.0318 11.2884C18.609 11.2839 18.1749 11.3491 17.7296 11.484C17.2843 11.6145 16.9177 11.7831 16.6298 11.9901L15.0645 11.8011L15.9011 5H23.0801V6.48438H17.3045L16.8187 10.5597H16.8997C17.1831 10.3348 17.5384 10.1481 17.9657 9.99965C18.3931 9.85121 18.8384 9.77699 19.3017 9.77699C20.1473 9.77699 20.9007 9.9794 21.562 10.3842C22.2277 10.7846 22.7495 11.3333 23.1273 12.0305C23.5096 12.7277 23.7008 13.5239 23.7008 14.419C23.7008 15.3007 23.5029 16.0878 23.1071 16.7805C22.7157 17.4687 22.176 18.013 21.4877 18.4134C20.7995 18.8092 20.0169 19.0071 19.1397 19.0071Z" fill="black"/>
</svg>
