<svg width="24" height="24" viewBox="0 0 24 24" fill="none" xmlns="http://www.w3.org/2000/svg">
<path d="M0 19.0071V5.18892H1.6733V11.3423H9.04119V5.18892H10.7145V19.0071H9.04119V12.8267H1.6733V19.0071H0Z" fill="black"/>
<path d="M18.4096 19.196C17.8429 19.187 17.2761 19.0791 16.7093 18.8722C16.1426 18.6652 15.6253 18.3166 15.1575 17.8263C14.6897 17.3316 14.3141 16.6636 14.0307 15.8224C13.7473 14.9768 13.6056 13.9152 13.6056 12.6378C13.6056 11.4143 13.7203 10.3303 13.9498 9.38565C14.1792 8.43655 14.512 7.63814 14.9483 6.99041C15.3846 6.33819 15.9109 5.84339 16.5272 5.50604C17.1479 5.16868 17.8474 5 18.6255 5C19.3992 5 20.0874 5.15518 20.6902 5.46555C21.2974 5.77143 21.7922 6.19875 22.1745 6.74751C22.5569 7.29628 22.8043 7.92827 22.9167 8.64347H21.2704C21.1175 8.02273 20.8206 7.50769 20.3798 7.09837C19.939 6.68904 19.3542 6.48437 18.6255 6.48437C17.555 6.48437 16.7116 6.94993 16.0953 7.88104C15.4836 8.81215 15.1755 10.1188 15.171 11.8011H15.2789C15.5308 11.4188 15.83 11.0927 16.1763 10.8228C16.5272 10.5484 16.914 10.337 17.3368 10.1886C17.7596 10.0401 18.2072 9.96591 18.6795 9.96591C19.4712 9.96591 20.1954 10.1638 20.8521 10.5597C21.5088 10.951 22.0351 11.493 22.4309 12.1857C22.8268 12.8739 23.0247 13.6634 23.0247 14.554C23.0247 15.4086 22.8335 16.1913 22.4512 16.902C22.0688 17.6082 21.5313 18.1705 20.8386 18.5888C20.1504 19.0026 19.3407 19.205 18.4096 19.196ZM18.4096 17.7116C18.9764 17.7116 19.4847 17.57 19.9345 17.2866C20.3888 17.0032 20.7464 16.6231 21.0073 16.1463C21.2727 15.6695 21.4054 15.1387 21.4054 14.554C21.4054 13.9827 21.2772 13.4632 21.0208 12.9954C20.7689 12.5231 20.4203 12.1475 19.975 11.8686C19.5341 11.5897 19.0304 11.4503 18.4636 11.4503C18.0363 11.4503 17.6382 11.5357 17.2694 11.7067C16.9005 11.8731 16.5766 12.1025 16.2978 12.3949C16.0234 12.6873 15.8075 13.0224 15.65 13.4002C15.4926 13.7736 15.4139 14.1671 15.4139 14.581C15.4139 15.1297 15.5421 15.6425 15.7985 16.1193C16.0594 16.5961 16.4147 16.9807 16.8645 17.2731C17.3188 17.5655 17.8339 17.7116 18.4096 17.7116Z" fill="black"/>
</svg>
