<svg width="28" height="28" viewBox="0 0 28 28" fill="none" xmlns="http://www.w3.org/2000/svg">
<g filter="url(#filter0_d_4_33)">
<path d="M16.2 11L20 16H8L11 12.1L13.1 14.8L16 11H16.2ZM10.5 11C11.3 11 12 10.3 12 9.5C12 8.7 11.3 8 10.5 8C9.7 8 9 8.7 9 9.5C9 10.3 9.7 11 10.5 11ZM24 6V18C24 19.1 23.1 20 22 20H6C4.9 20 4 19.1 4 18V6C4 4.9 4.9 4 6 4H22C23.1 4 24 4.9 24 6ZM22 8.8V6H6V18H22V8.8Z" fill="black"/>
</g>
<defs>
<filter id="filter0_d_4_33" x="-2" y="0" width="32" height="32" filterUnits="userSpaceOnUse" color-interpolation-filters="sRGB">
<feFlood flood-opacity="0" result="BackgroundImageFix"/>
<feColorMatrix in="SourceAlpha" type="matrix" values="0 0 0 0 0 0 0 0 0 0 0 0 0 0 0 0 0 0 127 0" result="hardAlpha"/>
<feOffset dy="4"/>
<feGaussianBlur stdDeviation="2"/>
<feComposite in2="hardAlpha" operator="out"/>
<feColorMatrix type="matrix" values="0 0 0 0 0 0 0 0 0 0 0 0 0 0 0 0 0 0 0.25 0"/>
<feBlend mode="normal" in2="BackgroundImageFix" result="effect1_dropShadow_4_33"/>
<feBlend mode="normal" in="SourceGraphic" in2="effect1_dropShadow_4_33" result="shape"/>
</filter>
</defs>
</svg>
