<svg width="24" height="24" viewBox="0 0 24 24" fill="none" xmlns="http://www.w3.org/2000/svg">
<path d="M3 18.7846V5H4.61449V10.0885H4.75131C4.86989 9.90897 5.03407 9.68013 5.24386 9.40192C5.45822 9.11923 5.76378 8.86795 6.16056 8.64808C6.5619 8.42372 7.10463 8.31154 7.78873 8.31154C8.67351 8.31154 9.45339 8.52917 10.1284 8.96442C10.8034 9.39968 11.3301 10.0167 11.7087 10.8154C12.0872 11.6141 12.2765 12.5564 12.2765 13.6423C12.2765 14.7372 12.0872 15.6862 11.7087 16.4894C11.3301 17.2881 10.8056 17.9074 10.1352 18.3471C9.46479 18.7824 8.69175 19 7.8161 19C7.14111 19 6.60067 18.8901 6.19477 18.6702C5.78887 18.4458 5.47646 18.1923 5.25755 17.9096C5.03863 17.6224 4.86989 17.3846 4.75131 17.1962H4.55976V18.7846H3ZM4.58712 13.6154C4.58712 14.3962 4.70342 15.0849 4.93602 15.6817C5.16861 16.274 5.50838 16.7385 5.95533 17.075C6.40228 17.4071 6.94956 17.5731 7.59718 17.5731C8.27217 17.5731 8.83541 17.3981 9.28692 17.0481C9.74299 16.6936 10.085 16.2179 10.3131 15.6212C10.5457 15.0199 10.662 14.3513 10.662 13.6154C10.662 12.8885 10.548 12.2333 10.3199 11.65C10.0964 11.0622 9.75667 10.5978 9.3006 10.2567C8.84909 9.91122 8.28129 9.73846 7.59718 9.73846C6.94044 9.73846 6.3886 9.90224 5.94165 10.2298C5.4947 10.5529 5.15721 11.0061 4.92917 11.5894C4.70114 12.1683 4.58712 12.8436 4.58712 13.6154Z" fill="black"/>
<path d="M14.7461 18.7846V8.44615H16.3058V10.0077H16.4153C16.6068 9.49615 16.9535 9.08109 17.4551 8.7625C17.9568 8.44391 18.5223 8.28461 19.1517 8.28461C19.2703 8.28461 19.4185 8.28686 19.5964 8.29135C19.7742 8.29583 19.9088 8.30256 20 8.31154V9.92692C19.9453 9.91346 19.8199 9.89327 19.6237 9.86635C19.4322 9.83494 19.2292 9.81923 19.0149 9.81923C18.5041 9.81923 18.048 9.92468 17.6467 10.1356C17.2499 10.342 16.9352 10.6292 16.7026 10.9971C16.4746 11.3606 16.3606 11.7756 16.3606 12.2423V18.7846H14.7461Z" fill="black"/>
</svg>
