<svg width="24" height="24" viewBox="0 0 24 24" fill="none" xmlns="http://www.w3.org/2000/svg">
<path d="M7 19V5H11.487C12.5288 5 13.3804 5.19824 14.0418 5.59473C14.7075 5.98665 15.2003 6.51758 15.5202 7.1875C15.8401 7.85742 16 8.60482 16 9.42969C16 10.2546 15.8401 11.0042 15.5202 11.6787C15.2046 12.3532 14.7161 12.891 14.0548 13.292C13.3934 13.6885 12.5461 13.8867 11.513 13.8867H8.29683V12.3828H11.4611C12.1744 12.3828 12.7471 12.2529 13.1794 11.9932C13.6117 11.7334 13.9251 11.3825 14.1196 10.9404C14.3184 10.4938 14.4179 9.99023 14.4179 9.42969C14.4179 8.86914 14.3184 8.36784 14.1196 7.92578C13.9251 7.48372 13.6095 7.13737 13.1729 6.88672C12.7363 6.63151 12.1571 6.50391 11.4352 6.50391H8.60807V19H7Z" fill="black"/>
</svg>
